<?xml version="1.0" standalone="no"?><!DOCTYPE svg PUBLIC "-//W3C//DTD SVG 1.1//EN" "http://www.w3.org/Graphics/SVG/1.1/DTD/svg11.dtd"><svg t="1648696724426" class="icon" viewBox="0 0 1024 1024" version="1.1" xmlns="http://www.w3.org/2000/svg" p-id="930" width="64" height="64" xmlns:xlink="http://www.w3.org/1999/xlink"><defs><style type="text/css">@font-face { font-family: feedback-iconfont; src: url("//at.alicdn.com/t/font_1031158_u69w8yhxdu.woff2?t=1630033759944") format("woff2"), url("//at.alicdn.com/t/font_1031158_u69w8yhxdu.woff?t=1630033759944") format("woff"), url("//at.alicdn.com/t/font_1031158_u69w8yhxdu.ttf?t=1630033759944") format("truetype"); }
</style></defs><path d="M864 841H160C71.8 841 0 769.2 0 681V361c0-88.2 71.8-160 160-160h704c88.3 0 160 71.8 160 160v320c0 88.2-71.7 160-160 160zM160 265c-52.9 0-96 43.1-96 96v320c0 52.9 43.1 96 96 96h704c52.9 0 96-43.1 96-96V361c0-52.9-43.1-96-96-96H160z" p-id="931" fill="#1296db"></path><path d="M165 346.5h135.3c30.5 0 53.8 2.3 69.8 7 21.5 6.3 39.9 17.6 55.3 33.8 15.3 16.2 27 35.9 35 59.4s12 52.3 12 86.6c0 30.2-3.8 56.2-11.3 78-9.2 26.7-22.3 48.3-39.3 64.8-12.8 12.5-30.2 22.3-52 29.3-16.3 5.2-38.2 7.8-65.5 7.8H165V346.5z m74 62v242.8h55.3c20.7 0 35.6-1.2 44.8-3.5 12-3 22-8.1 29.9-15.3s14.4-18.9 19.4-35.4 7.5-38.8 7.5-67.1c0-28.3-2.5-50.1-7.5-65.3s-12-27-21-35.5-20.4-14.3-34.3-17.3c-10.3-2.3-30.6-3.5-60.8-3.5H239zM535.3 346.5h146.5c29 0 50.6 1.2 64.9 3.6 14.3 2.4 27 7.4 38.3 15.1 11.3 7.7 20.6 17.9 28.1 30.6 7.5 12.8 11.3 27.1 11.3 42.9 0 17.2-4.6 32.9-13.9 47.3-9.3 14.3-21.8 25.1-37.6 32.3 22.4 6.5 39.5 17.6 51.5 33.3 12 15.7 18 34.1 18 55.3 0 16.7-3.9 32.9-11.6 48.6-7.8 15.8-18.4 28.3-31.8 37.8-13.4 9.4-30 15.2-49.6 17.4-12.4 1.3-42.1 2.2-89.3 2.5H535.3V346.5z m74 61v84.8h48.5c28.9 0 46.8-0.4 53.8-1.3 12.6-1.5 22.6-5.9 29.9-13.1 7.3-7.3 10.9-16.8 10.9-28.6 0-11.3-3.1-20.6-9.4-27.6s-15.5-11.4-27.9-12.9c-7.4-0.8-28.4-1.3-63.3-1.3h-42.5z m0 145.7v98h68.5c26.6 0 43.6-0.8 50.8-2.3 11-2 20-6.9 26.9-14.6 6.9-7.8 10.4-18.1 10.4-31.1 0-11-2.6-20.3-8-28-5.4-7.7-13-13.3-23.1-16.8s-32-5.3-65.6-5.3h-59.9z" p-id="932" fill="#1296db"></path></svg>