<?xml version="1.0" encoding="UTF-8"?>
<svg width="60px" height="80px" viewBox="0 0 359 446" version="1.1" xmlns="http://www.w3.org/2000/svg" xmlns:xlink="http://www.w3.org/1999/xlink">
    <!-- Generator: Sketch 63 (92445) - https://sketch.com -->
    <title>小树苗</title>
    <desc>Created with Sketch.</desc>
    <g id="页面-1" stroke="none" stroke-width="1" fill="none" fill-rule="evenodd">
        <g id="iPhone-8" transform="translate(-183.000000, -460.000000)">
            <g id="元素" transform="translate(-45.000000, 0.000000)">
                <g id="小树苗" transform="translate(217.000000, 446.000000)">
                    <path d="M180.456468,205.166885 C170.817796,246.50629 165.99846,271.218021 165.99846,279.302078 C137.352627,275.841461 119.385505,275.841461 112.097093,279.302078 C140.844869,285.705813 157.015374,291.997205 160.608609,298.176257 C165.99846,307.444834 188.073656,352.682656 188.073656,380.574743 C188.073656,399.169468 185.534593,420.675602 180.456468,445.093146 L222.719652,459.464804 C229.622321,421.176939 224.304124,378.793953 206.765062,332.315844 C194.304124,301.695997 188.073656,284.024742 188.073656,279.302078 L206.765062,213.512055 L180.456468,205.166885 Z" id="路径-426" fill="#CB8F70"></path>
                    <path d="M26.0424056,93.5933134 C26.0424056,93.5933134 26.0424056,251.227212 169.064867,234.745762 C189.15764,93.5933134 26.0424056,93.5933134 26.0424056,93.5933134 Z" id="路径-425" fill="#92CE5A"></path>
                    <path d="M17.6277392,257.179516 C17.6277392,257.179516 38.1659656,323.608238 111.639549,348.573883 C132.61915,309.661147 111.701941,269.937975 96.1235632,257.189266 C67.7073022,233.934555 17.6277392,257.179516 17.6277392,257.179516 Z" id="路径-425" fill="#92CE5A" transform="translate(69.056193, 297.712596) rotate(-66.000000) translate(-69.056193, -297.712596) "></path>
                    <path d="M164.288737,27.9531846 C164.288737,27.9531846 190.57523,258.836408 380.574105,236.743214 C410.721148,25.8395698 164.288737,27.9531846 164.288737,27.9531846 Z" id="路径-425" fill="#92CE5A" transform="translate(273.709664, 133.093272) rotate(85.000000) translate(-273.709664, -133.093272) "></path>
                </g>
            </g>
        </g>
    </g>
</svg>
